<svg width="63" height="73" viewBox="0 0 63 73" fill="none" xmlns="http://www.w3.org/2000/svg">
<path d="M35.1986 16.9136C35.0139 17.1275 34.9102 17.4177 34.9102 17.7202C34.9102 18.0227 35.0139 18.3128 35.1986 18.5268C35.3832 18.7407 35.6336 18.8608 35.8946 18.8608C36.1557 18.8608 36.4061 18.7407 36.5907 18.5268L36.6602 18.4462C37.6069 19.1706 38.7405 19.494 39.8692 19.3616C40.9979 19.2293 42.0525 18.6493 42.8548 17.7197C43.657 16.7902 44.1575 15.5682 44.2717 14.2603C44.386 12.9524 44.1069 11.6389 43.4817 10.542L43.5512 10.4614C43.6426 10.3555 43.7151 10.2297 43.7646 10.0913C43.8141 9.95295 43.8396 9.80463 43.8396 9.65484C43.8396 9.50504 43.8141 9.35672 43.7646 9.21833C43.7151 9.07994 43.6426 8.95419 43.5512 8.84827C43.4598 8.74235 43.3513 8.65833 43.2319 8.60101C43.1124 8.54368 42.9844 8.51418 42.8552 8.51418C42.7259 8.51418 42.5979 8.54368 42.4784 8.60101C42.359 8.65833 42.2505 8.74235 42.1591 8.84827L42.0896 8.92883C41.1429 8.20439 40.0093 7.88101 38.8806 8.01338C37.7519 8.14575 36.6972 8.72575 35.895 9.65529C35.0928 10.5848 34.5923 11.8069 34.478 13.1148C34.3638 14.4227 34.6429 15.7361 35.2681 16.8331L35.1986 16.9136ZM42.328 13.6875C42.3291 14.137 42.2532 14.5823 42.1047 14.9977C41.9562 15.413 41.7382 15.79 41.4631 16.1071C41.031 16.6071 40.4759 16.9399 39.8739 17.0598C39.272 17.1796 38.6529 17.0806 38.1015 16.7763L42.0407 12.2118C42.2306 12.6726 42.3288 13.1769 42.328 13.6875ZM36.4218 13.6875C36.4222 13.1095 36.5488 12.5411 36.7899 12.0351C37.031 11.5291 37.3787 11.102 37.8006 10.7937C38.2225 10.4854 38.7049 10.3058 39.2029 10.2717C39.7008 10.2375 40.1981 10.35 40.6484 10.5986L36.7091 15.1632C36.5192 14.7024 36.421 14.1981 36.4218 13.6875Z" fill="#0C3158"/>
<path d="M58.0781 27.0938H49.2188V24.8125H52.1719C52.4329 24.8125 52.6833 24.6923 52.8679 24.4784C53.0525 24.2645 53.1562 23.9744 53.1562 23.6719V3.14062C53.1562 2.83811 53.0525 2.54799 52.8679 2.33408C52.6833 2.12017 52.4329 2 52.1719 2H2.95312C2.69205 2 2.44167 2.12017 2.25707 2.33408C2.07246 2.54799 1.96875 2.83811 1.96875 3.14062V69.2969C1.96875 69.5994 2.07246 69.8895 2.25707 70.1034C2.44167 70.3173 2.69205 70.4375 2.95312 70.4375H56.1094C56.3704 70.4375 56.6208 70.3173 56.8054 70.1034C56.99 69.8895 57.0938 69.5994 57.0938 69.2969V62.4531C57.0923 60.9411 56.5733 59.4915 55.6505 58.4223C54.7278 57.3531 53.4768 56.7517 52.1719 56.75H48.1075C48.6491 56.3026 49.1503 55.7932 49.6038 55.2294C49.8019 54.9828 49.9891 54.7293 50.1656 54.4688H54.1406C54.9236 54.4677 55.6742 54.1068 56.2278 53.4653C56.7814 52.8238 57.0928 51.9541 57.0938 51.0469V47.625C57.0928 46.7178 56.7814 45.848 56.2278 45.2065C55.6742 44.565 54.9236 44.2042 54.1406 44.2031H53.1432C53.1875 43.4166 53.191 42.6276 53.1537 41.8406C53.1359 41.5529 53.0248 41.2837 52.8426 41.0871C52.6605 40.8906 52.4208 40.7813 52.1719 40.7812H30.5156C30.2667 40.7813 30.027 40.8906 29.8449 41.0871C29.6627 41.2837 29.5516 41.5529 29.5338 41.8406C29.5128 42.1808 29.0663 50.23 33.0837 55.2287C33.5371 55.7927 34.0384 56.3024 34.58 56.75H27.5625V24.8125H29.5312V28.2344C29.5312 28.5369 29.635 28.827 29.8196 29.0409C30.0042 29.2548 30.2546 29.375 30.5156 29.375H31.5V35.0781C31.5 35.3806 31.6037 35.6708 31.7883 35.8847C31.9729 36.0986 32.2233 36.2188 32.4844 36.2188H37.4062V37.3594C37.4062 37.6619 37.51 37.952 37.6946 38.1659C37.8792 38.3798 38.1296 38.5 38.3906 38.5C38.6517 38.5 38.9021 38.3798 39.0867 38.1659C39.2713 37.952 39.375 37.6619 39.375 37.3594V36.2188H44.2969C44.5579 36.2188 44.8083 36.0986 44.9929 35.8847C45.1775 35.6708 45.2812 35.3806 45.2812 35.0781V33.9375H58.0781C58.8613 33.9375 59.6125 33.577 60.1663 32.9353C60.7201 32.2935 61.0312 31.4232 61.0312 30.5156C61.0312 29.6081 60.7201 28.7377 60.1663 28.096C59.6125 27.4543 58.8613 27.0938 58.0781 27.0938ZM51.1875 22.5312H27.5625V4.28125H51.1875V22.5312ZM3.9375 68.1562V65.875H55.125V68.1562H3.9375ZM52.9348 46.4844H54.1406C54.4016 46.4847 54.6518 46.605 54.8364 46.8188C55.0209 47.0327 55.1247 47.3226 55.125 47.625V51.0469C55.1247 51.3493 55.0209 51.6392 54.8364 51.853C54.6518 52.0669 54.4016 52.1872 54.1406 52.1875H51.4156C52.2555 50.27 52.702 48.2369 52.9348 46.4844ZM51.2052 43.0625C51.1956 43.825 51.1526 44.5863 51.0764 45.3438H31.6144C31.5378 44.5864 31.4941 43.825 31.4834 43.0625H51.2052ZM34.5309 53.6826C33.129 51.942 32.3653 49.688 31.9533 47.625H50.7384C50.3269 49.6821 49.5646 51.9309 48.1629 53.6749C46.5232 55.7153 44.2288 56.75 41.3438 56.75C38.4622 56.75 36.17 55.718 34.5309 53.6826ZM52.1719 59.0312C52.9548 59.0323 53.7054 59.3932 54.259 60.0347C54.8127 60.6762 55.1241 61.5459 55.125 62.4531V63.5938H3.9375V4.28125H25.5938V57.8906C25.5938 58.1931 25.6975 58.4833 25.8821 58.6972C26.0667 58.9111 26.3171 59.0312 26.5781 59.0312H52.1719ZM47.25 24.8125V27.0938H31.5V24.8125H47.25ZM43.3125 33.9375H33.4688V29.375H43.3125V33.9375ZM45.2812 29.375H47.25V31.6562H45.2812V29.375ZM58.0781 31.6562H49.2188V29.375H58.0781C58.3392 29.375 58.5896 29.4952 58.7742 29.7091C58.9588 29.923 59.0625 30.2131 59.0625 30.5156C59.0625 30.8181 58.9588 31.1083 58.7742 31.3222C58.5896 31.5361 58.3392 31.6562 58.0781 31.6562Z" fill="#CC9F52"/>
</svg>
