<svg width="62" height="73" viewBox="0 0 62 73" fill="none" xmlns="http://www.w3.org/2000/svg">
<g clip-path="url(#clip0)">
<path d="M47.7916 28.8948H11.6241C9.48755 28.8948 7.74896 30.9418 7.74896 33.4574V36.4991C7.74896 47.3519 12.8408 57.1951 21.0353 62.1866C21.6683 62.5698 22.4484 62.2808 22.7766 61.5325C23.1021 60.7873 22.8566 59.8687 22.2211 59.4823C14.8894 55.0171 10.3323 46.2113 10.3323 36.4989V33.4572C10.3323 32.6177 10.911 31.9363 11.6241 31.9363H47.7916C48.5046 31.9363 49.0833 32.6177 49.0833 33.4572V36.4989C49.0833 46.2111 44.5262 55.017 37.192 59.4792C36.5565 59.8655 36.311 60.7841 36.6366 61.5294C36.8665 62.0525 37.3186 62.3537 37.7861 62.3537C37.9876 62.3537 38.1891 62.2989 38.3777 62.1833C46.5748 57.1948 51.6667 47.3548 51.6667 36.4988V33.4571C51.6667 30.9418 49.928 28.8948 47.7916 28.8948Z" fill="#CBA052"/>
<path d="M59.3208 60.249C59.1193 59.6802 58.649 59.3091 58.1272 59.3091H1.29261C0.770806 59.3091 0.300589 59.6802 0.0990838 60.249C-0.102421 60.8177 0.00862464 61.4718 0.37809 61.9068L3.27412 65.3196C4.98436 67.3301 7.2525 68.4374 9.66801 68.4374H49.7467C52.1623 68.4374 54.4331 67.3303 56.1459 65.3196L59.0419 61.9068C59.4112 61.4718 59.5223 60.8177 59.3208 60.249ZM54.3168 63.169C53.0975 64.6047 51.4725 65.3956 49.7494 65.3956H9.66801C7.94493 65.3956 6.31994 64.6047 5.10062 63.169L4.40831 62.3539H55.0091L54.3168 63.169Z" fill="#CBA052"/>
<path d="M59.5022 36.0764C56.0224 33.4422 50.4629 36.3016 49.8403 36.6331C49.1918 36.9828 48.9025 37.8832 49.1995 38.6497C49.4966 39.4162 50.2588 39.7539 50.9123 39.4041C52.1576 38.738 56.1515 37.1593 58.1045 38.6406C58.9855 39.3067 59.4168 40.5995 59.4168 42.5827C59.4168 48.6722 48.9851 52.3528 44.9575 53.2592L44.043 53.4721C43.343 53.6333 42.8882 54.4332 43.0252 55.2576C43.1467 55.9815 43.6865 56.4834 44.291 56.4834C44.3737 56.4834 44.4563 56.4743 44.5416 56.453L45.4483 56.2431C46.1251 56.091 62.0002 52.4258 62.0002 42.5827C62.0003 39.5228 61.1582 37.3357 59.5022 36.0764Z" fill="#CBA052"/>
<path d="M39.7646 16.156C41.8649 13.0655 41.8649 8.22615 39.7646 5.13569C39.3177 4.47868 38.5091 4.36918 37.9485 4.89844C37.3905 5.42471 37.3001 6.37972 37.747 7.03673C39.0775 8.99252 39.0775 12.299 37.7445 14.2609C35.6416 17.3514 35.6416 22.1907 37.7445 25.2812C38.0002 25.6583 38.3748 25.8531 38.7546 25.8531C39.0361 25.8531 39.3229 25.7436 39.5606 25.5184C40.1186 24.9922 40.209 24.034 39.7621 23.3801C38.429 21.4242 38.429 18.1179 39.7646 16.156Z" fill="#0C3158"/>
<path d="M32.0042 16.1559C34.1071 13.0655 34.1071 8.22611 32.0042 5.13566C31.5599 4.47864 30.7462 4.37213 30.1881 4.8984C29.6301 5.42467 29.5397 6.38282 29.9866 7.03669C31.3197 8.99248 31.3197 12.2989 29.9841 14.2609C27.8838 17.3513 27.8838 22.1907 29.9841 25.2811C30.2399 25.6583 30.6144 25.853 30.9942 25.853C31.2757 25.853 31.5599 25.7435 31.8002 25.5184C32.3582 24.9921 32.4487 24.0371 32.0017 23.3801C30.6712 21.4242 30.6712 18.1178 32.0042 16.1559Z" fill="#0C3158"/>
<path d="M24.2646 16.1591C26.3649 13.0687 26.3649 8.22932 24.2646 5.13887C23.8203 4.48185 23.009 4.37235 22.4485 4.90161C21.893 5.42474 21.8027 6.38289 22.247 7.03691C23.5775 8.9927 23.5775 12.2992 22.2444 14.2611C20.1416 17.3515 20.1416 22.1909 22.2444 25.2813C22.5002 25.6585 22.8747 25.8532 23.2545 25.8532C23.536 25.8532 23.8228 25.7437 24.0605 25.5217C24.6185 24.9955 24.709 24.0373 24.262 23.3834C22.929 21.4244 22.929 18.1211 24.2646 16.1591Z" fill="#0C3158"/>
</g>
<defs>
<clipPath id="clip0">
<rect width="62" height="73" fill="white"/>
</clipPath>
</defs>
</svg>
