<svg width="55" height="49" viewBox="0 0 55 49" fill="none" xmlns="http://www.w3.org/2000/svg">
<path d="M17.8337 11.6658L19.0925 0.509487L33.6723 0.816222L35.5 13.3383V32.2802L20.8094 33.486L17.5042 30.9623L17.8337 11.6658Z" fill="#CBA052" stroke="#003158"/>
<path d="M8.98363 47.13C10.6336 47.13 12.1136 45.78 12.1136 44.06C12.1136 42.28 10.7036 40.91 8.98363 40.91C7.53363 40.91 6.29363 41.94 5.98363 43.35C5.26363 43.36 4.56363 43.66 4.14363 44.17C3.64363 44.77 3.48363 45.57 3.48363 46.59V48.2H5.28363V46.45C5.28363 45.97 5.37363 45.65 5.53363 45.47C5.69363 45.3 5.87363 45.2 6.11363 45.16C6.57363 46.31 7.72363 47.13 8.98363 47.13ZM8.99363 45.33C8.28363 45.33 7.70363 44.77 7.70363 44.04C7.70363 43.29 8.24363 42.71 8.99363 42.71C9.76363 42.71 10.3136 43.28 10.3136 44.04C10.3136 44.79 9.71363 45.33 8.99363 45.33ZM13.851 46H15.651V37.89H13.851V46ZM17.6852 48.2C19.3152 48.2 19.8952 47.53 20.0152 46H21.0752V44.2H20.0552L20.0452 44.23V40.23H18.2452V45.48C18.2452 46.1 17.9552 46.4 17.4952 46.4C17.2552 46.4 17.0952 46.38 16.7952 46.31L17.0052 48.1C17.1852 48.15 17.4452 48.2 17.6852 48.2ZM21.1732 46H26.6432C26.8432 45.44 27.1732 44.2 27.1732 43.23C27.1732 42.2 26.7632 41.39 26.2432 40.82C25.7332 40.28 25.0132 39.96 24.0832 39.96C23.2432 39.96 22.4432 40.24 21.7832 40.61L22.4332 42.24C23.0032 41.86 23.3832 41.75 23.9132 41.75C24.3532 41.75 24.7332 41.88 24.9832 42.12C25.2632 42.37 25.3732 42.71 25.3732 43.1C25.3732 43.64 25.3232 43.94 25.2332 44.2H21.1732V46ZM23.9132 48.16C24.4332 48.16 24.9032 47.86 24.9032 47.26C24.9032 46.73 24.4832 46.38 23.9132 46.38C23.3532 46.38 22.9232 46.73 22.9232 47.26C22.9232 47.86 23.3932 48.16 23.9132 48.16ZM33.7596 40.67C34.3496 40.67 34.8396 40.89 34.8396 41.38C34.8396 42.22 32.9296 43.46 31.5896 44.41V46H36.7596V44.33H34.2296C35.8796 43.22 36.6996 42.26 36.6996 41.01C36.6996 39.55 35.4896 38.92 33.9996 38.92C33.0696 38.92 32.0696 39.23 31.4396 39.68L32.2196 41.27C32.6696 40.91 33.1996 40.67 33.7596 40.67ZM40.9185 46.11C42.4785 46.11 43.7685 45.28 43.7685 43.69C43.7685 41.9 42.3585 41.46 40.9885 41.46C40.7785 41.46 40.5785 41.46 40.3785 41.49L40.4585 40.82H43.3685V39.16H39.1385L38.6885 43.12C39.0385 43.02 39.7085 42.9 40.2985 42.9C41.1185 42.9 41.9185 43.06 41.9185 43.67C41.9185 44.19 41.3385 44.36 40.6885 44.36C40.1385 44.36 39.3485 44.13 38.8985 43.77L38.1185 45.38C38.9285 45.84 39.9085 46.11 40.9185 46.11ZM48.2386 44.4C47.5086 44.4 47.0286 43.73 47.0286 42.52C47.0286 41.32 47.5086 40.64 48.2386 40.64C48.9786 40.64 49.4586 41.32 49.4586 42.52C49.4586 43.73 48.9786 44.4 48.2386 44.4ZM48.2386 46.11C50.1386 46.11 51.3086 44.73 51.3086 42.52C51.3086 40.31 50.1386 38.92 48.2386 38.92C46.3486 38.92 45.1786 40.31 45.1786 42.52C45.1786 44.73 46.3486 46.11 48.2386 46.11Z" fill="#4A4B50"/>
</svg>
