<svg width="36" height="66" viewBox="0 0 36 66" fill="none" xmlns="http://www.w3.org/2000/svg">
<g clip-path="url(#clip0)">
<path d="M3.48594 18.2653L5.57795 0.576248L30.0301 1.06702L33.0619 20.8841V50.7652L8.55745 52.684L2.94312 48.5942L3.48594 18.2653Z" fill="#CBA052" stroke="#003158"/>
</g>
<path d="M3.29313 65.825C5.25313 65.825 6.02313 64.975 6.19313 63.625H7.10313V61.825H6.23313V57.855H4.38313C2.36313 57.855 0.903125 58.845 0.903125 60.735C0.903125 62.725 2.39313 63.605 4.37313 63.625C4.25313 64.045 3.90313 64.185 3.22313 64.185C2.71313 64.185 2.35313 64.065 1.76313 63.825L2.02313 65.615C2.53313 65.785 2.89313 65.825 3.29313 65.825ZM2.70313 60.735C2.70313 60.005 3.35313 59.655 4.03313 59.655H4.43313V61.825H3.97313C3.28313 61.825 2.70313 61.505 2.70313 60.735ZM7.21797 63.625H11.398V61.825H10.138V55.515H8.33797V61.825H7.21797V63.625ZM11.5023 63.625H17.1523V61.825H15.4423V57.855H13.6423V61.825H11.5023V63.625ZM13.2023 65.785C13.7023 65.785 14.1423 65.505 14.1423 64.935C14.1423 64.425 13.7323 64.095 13.2023 64.095C12.6723 64.095 12.2623 64.425 12.2623 64.935C12.2623 65.505 12.7023 65.785 13.2023 65.785ZM15.5323 65.785C16.0323 65.785 16.4723 65.505 16.4723 64.935C16.4723 64.425 16.0723 64.095 15.5323 64.095C15.0023 64.095 14.6023 64.425 14.6023 64.935C14.6023 65.505 15.0423 65.785 15.5323 65.785ZM22.2616 60.055C22.6216 60.055 22.8816 60.145 23.0616 60.345C23.2316 60.535 23.2816 60.775 23.2816 61.055V61.825H17.2516V63.625H25.0816V61.195C25.0816 60.375 24.8916 59.545 24.4416 59.035C23.9216 58.455 23.1816 58.255 22.1516 58.255H19.4816L21.1716 55.515H18.9716L17.5116 58.265C17.5316 59.025 17.7916 59.645 18.0916 60.055H22.2616ZM32.0402 63.735C33.8102 63.735 34.9902 62.985 34.9902 61.645C34.9902 60.805 34.5502 60.245 33.9502 60.025C34.4202 59.805 34.8002 59.175 34.8002 58.545C34.8002 57.275 33.6902 56.545 32.0202 56.545C31.1602 56.545 30.1102 56.835 29.4802 57.285L30.2602 58.885C30.7102 58.525 31.2702 58.295 31.8202 58.295C32.4802 58.295 32.9602 58.495 32.9602 58.885C32.9602 59.305 32.5502 59.365 31.6902 59.365H31.4302V60.845H31.7002C32.5302 60.845 33.0402 60.925 33.0402 61.385C33.0402 61.805 32.4802 61.995 31.8102 61.995C31.2602 61.995 30.6902 61.765 30.2402 61.405L29.4602 63.005C30.0902 63.455 31.1802 63.735 32.0402 63.735Z" fill="#4A4B50"/>
<defs>
<clipPath id="clip0">
<rect width="31.2" height="53.2639" fill="white" transform="translate(2.3999)"/>
</clipPath>
</defs>
</svg>
