<svg width="59" height="58" viewBox="0 0 59 58" fill="none" xmlns="http://www.w3.org/2000/svg">
<path d="M15.9919 14.7506L17.8643 0.507981L39.7854 0.903762L42.5 16.8654V40.9415L20.5248 42.4894L15.5054 39.2003L15.9919 14.7506Z" fill="#CBA052" stroke="#003158"/>
<path d="M10.5442 56.13C12.1942 56.13 13.6742 54.78 13.6742 53.06C13.6742 51.28 12.2642 49.91 10.5442 49.91C9.09418 49.91 7.85418 50.94 7.54418 52.35C6.82418 52.36 6.12418 52.66 5.70418 53.17C5.20418 53.77 5.04418 54.57 5.04418 55.59V57.2H6.84418V55.45C6.84418 54.97 6.93418 54.65 7.09418 54.47C7.25418 54.3 7.43418 54.2 7.67418 54.16C8.13418 55.31 9.28418 56.13 10.5442 56.13ZM10.5542 54.33C9.84418 54.33 9.26418 53.77 9.26418 53.04C9.26418 52.29 9.80418 51.71 10.5542 51.71C11.3242 51.71 11.8742 52.28 11.8742 53.04C11.8742 53.79 11.2742 54.33 10.5542 54.33ZM15.4115 55H17.2115V46.89H15.4115V55ZM19.2457 57.2C20.8757 57.2 21.4557 56.53 21.5757 55H22.6357V53.2H21.6157L21.6057 53.23V49.23H19.8057V54.48C19.8057 55.1 19.5157 55.4 19.0557 55.4C18.8157 55.4 18.6557 55.38 18.3557 55.31L18.5657 57.1C18.7457 57.15 19.0057 57.2 19.2457 57.2ZM22.7338 55H28.2038C28.4038 54.44 28.7338 53.2 28.7338 52.23C28.7338 51.2 28.3238 50.39 27.8038 49.82C27.2938 49.28 26.5738 48.96 25.6438 48.96C24.8038 48.96 24.0038 49.24 23.3438 49.61L23.9938 51.24C24.5638 50.86 24.9438 50.75 25.4738 50.75C25.9138 50.75 26.2938 50.88 26.5438 51.12C26.8238 51.37 26.9338 51.71 26.9338 52.1C26.9338 52.64 26.8838 52.94 26.7938 53.2H22.7338V55ZM25.4738 57.16C25.9938 57.16 26.4638 56.86 26.4638 56.26C26.4638 55.73 26.0438 55.38 25.4738 55.38C24.9138 55.38 24.4838 55.73 24.4838 56.26C24.4838 56.86 24.9538 57.16 25.4738 57.16ZM35.8802 55.11C37.4402 55.11 38.7302 54.28 38.7302 52.69C38.7302 50.9 37.3202 50.46 35.9502 50.46C35.7402 50.46 35.5402 50.46 35.3402 50.49L35.4202 49.82H38.3302V48.16H34.1002L33.6502 52.12C34.0002 52.02 34.6702 51.9 35.2602 51.9C36.0802 51.9 36.8802 52.06 36.8802 52.67C36.8802 53.19 36.3002 53.36 35.6502 53.36C35.1002 53.36 34.3102 53.13 33.8602 52.77L33.0802 54.38C33.8902 54.84 34.8702 55.11 35.8802 55.11ZM43.2004 53.4C42.4704 53.4 41.9904 52.73 41.9904 51.52C41.9904 50.32 42.4704 49.64 43.2004 49.64C43.9404 49.64 44.4204 50.32 44.4204 51.52C44.4204 52.73 43.9404 53.4 43.2004 53.4ZM43.2004 55.11C45.1004 55.11 46.2704 53.73 46.2704 51.52C46.2704 49.31 45.1004 47.92 43.2004 47.92C41.3104 47.92 40.1404 49.31 40.1404 51.52C40.1404 53.73 41.3104 55.11 43.2004 55.11ZM50.6781 53.4C49.9481 53.4 49.4681 52.73 49.4681 51.52C49.4681 50.32 49.9481 49.64 50.6781 49.64C51.4181 49.64 51.8981 50.32 51.8981 51.52C51.8981 52.73 51.4181 53.4 50.6781 53.4ZM50.6781 55.11C52.5781 55.11 53.7481 53.73 53.7481 51.52C53.7481 49.31 52.5781 47.92 50.6781 47.92C48.7881 47.92 47.6181 49.31 47.6181 51.52C47.6181 53.73 48.7881 55.11 50.6781 55.11Z" fill="#4A4B50"/>
</svg>
