<svg width="35" height="45" viewBox="0 0 35 45" fill="none" xmlns="http://www.w3.org/2000/svg">
<path d="M24.794 6.37875C24.6791 6.31969 21.9628 4.92188 20.2358 4.92188C18.5087 4.92188 15.7929 6.31969 15.6781 6.37875C15.4594 6.49266 15.3215 6.7732 15.3369 7.07625C15.4429 9.18914 15.9581 11.0503 16.3715 12.24C16.4596 12.4938 16.6548 12.6562 16.8708 12.6562H23.6012C23.8172 12.6562 24.0125 12.4938 24.1005 12.24C24.5145 11.051 25.0297 9.18984 25.1358 7.07625C25.1505 6.77391 25.0127 6.49195 24.794 6.37875ZM23.2403 11.25H17.2312C16.9534 10.3788 16.5952 9.0218 16.4634 7.49883C17.2444 7.12828 19.0649 6.32812 20.2358 6.32812C21.405 6.32812 23.2266 7.12828 24.0081 7.49883C23.8768 9.0218 23.5181 10.3795 23.2403 11.25Z" fill="#CBA052"/>
<path d="M30.4412 22.8544C30.17 22.6223 29.8555 22.5 29.5312 22.5H26.1499C26.2112 22.2785 26.2505 22.0451 26.2505 21.7969V19.6875C26.2505 19.2987 26.0055 18.9844 25.7037 18.9844H14.7662C14.4643 18.9844 14.2193 19.2987 14.2193 19.6875V21.7969C14.2193 22.4522 14.4577 23.0309 14.823 23.4176C12.3473 25.8687 12.0318 32.6081 12.0318 35.8594C12.0318 36.6539 12.2456 37.3795 12.5923 37.9688H11.4844C11.183 37.9688 10.9375 37.6538 10.9375 37.2656V15.4688C10.9375 15.0806 11.183 14.7656 11.4844 14.7656H16.9537V16.1719C16.9537 16.5607 17.1987 16.875 17.5005 16.875H18.0469V17.5781C18.0469 17.967 18.2919 18.2812 18.5938 18.2812C18.8956 18.2812 19.1406 17.967 19.1406 17.5781V16.875H21.3281V17.5781C21.3281 17.967 21.5731 18.2812 21.875 18.2812C22.1769 18.2812 22.4219 17.967 22.4219 17.5781V16.875H22.9693C23.2712 16.875 23.5162 16.5607 23.5162 16.1719V14.7656H24.6099C24.8019 14.7656 24.9802 14.6355 25.0786 14.4246C25.1486 14.2741 26.7974 10.6917 26.7974 6.32812V2.10938C26.7974 0.946406 26.0613 0 25.1568 0H4.37555C3.16914 0 2.18805 1.26141 2.18805 2.8125L2.1875 44.2969C2.1875 44.6857 2.4325 45 2.73438 45H29.5318C29.8337 45 30.0787 44.6857 30.0787 44.2969V40.0781C30.0787 38.9152 29.3426 37.9688 28.438 37.9688H27.8775C28.2242 37.3795 28.438 36.6539 28.438 35.8594C28.438 33.6199 28.2882 29.7267 27.3864 26.7188H28.7312C29.0484 27.5084 29.5312 29.3238 29.5312 33.0469C29.5312 34.2098 30.2673 35.1562 31.1719 35.1562C32.0764 35.1562 32.8125 34.2098 32.8125 33.0469C32.8125 25.4728 30.9974 23.3304 30.4412 22.8544ZM15.8599 22.5C15.5586 22.5 15.313 22.185 15.313 21.7969V20.3906H25.1568V21.7969C25.1568 22.185 24.9113 22.5 24.6099 22.5H23.5162H15.8599ZM16.9537 23.9062H23.5162C24.6646 23.9062 25.4691 24.8646 26.034 26.254C26.0444 26.2913 26.0602 26.3236 26.0755 26.3573C27.096 28.9589 27.306 32.985 27.3394 35.1562H13.1316C13.183 31.7798 13.6582 23.9062 16.9537 23.9062ZM9.84375 15.4688V37.2656C9.84375 37.5124 9.87656 37.7494 9.93727 37.9688H3.2818V4.21875H13.6724V6.32812C13.6724 9.32906 14.4517 11.9595 14.9614 13.3594H11.4844C10.5798 13.3594 9.84375 14.3058 9.84375 15.4688ZM22.4224 15.4688H18.0474V14.7656H22.4224V15.4688ZM24.2862 13.3594H16.1842C15.7959 12.4038 14.7667 9.56109 14.7667 6.32812V4.21875H25.7042V6.32812C25.7037 9.56109 24.6745 12.4038 24.2862 13.3594ZM15.8599 1.40625H25.1568C25.4581 1.40625 25.7037 1.72125 25.7037 2.10938V2.8125H14.7662V2.10938C14.7662 1.72125 15.0117 1.40625 15.313 1.40625H15.8599ZM4.37555 1.40625H13.773C13.7118 1.62773 13.6724 1.86188 13.6724 2.10938V2.8125H3.2818C3.2818 2.03766 3.77234 1.40625 4.37555 1.40625ZM28.9849 40.0781V43.5938H3.28125V39.375H28.438C28.7399 39.375 28.9849 39.69 28.9849 40.0781ZM14.7662 37.9688C14.0541 37.9688 13.4531 37.3788 13.2262 36.5625H27.2437C27.0173 37.3788 26.4157 37.9688 25.7037 37.9688H14.7662ZM31.1719 33.75C30.8705 33.75 30.625 33.435 30.625 33.0469C30.625 28.4878 29.9206 26.441 29.5012 25.6268C29.4 25.4306 29.2288 25.3125 29.0451 25.3125H26.8751C26.6421 24.7845 26.3747 24.3098 26.069 23.9062H29.5312C29.6395 23.9062 29.7445 23.9477 29.8348 24.0244C30.0278 24.1896 31.7188 25.8448 31.7188 33.0469C31.7188 33.435 31.4732 33.75 31.1719 33.75Z" fill="#0C3158"/>
<path d="M21.875 27.4219H22.9688C23.2706 27.4219 23.5156 27.1076 23.5156 26.7188C23.5156 26.3299 23.2706 26.0156 22.9688 26.0156H21.875C21.5731 26.0156 21.3281 26.3299 21.3281 26.7188C21.3281 27.1076 21.5731 27.4219 21.875 27.4219Z" fill="#CBA052"/>
<path d="M21.875 30.2344H22.9688C23.2706 30.2344 23.5156 29.9201 23.5156 29.5312C23.5156 29.1424 23.2706 28.8281 22.9688 28.8281H21.875C21.5731 28.8281 21.3281 29.1424 21.3281 29.5312C21.3281 29.9201 21.5731 30.2344 21.875 30.2344Z" fill="#CBA052"/>
<path d="M21.875 33.0469H22.9688C23.2706 33.0469 23.5156 32.7326 23.5156 32.3438C23.5156 31.9549 23.2706 31.6406 22.9688 31.6406H21.875C21.5731 31.6406 21.3281 31.9549 21.3281 32.3438C21.3281 32.7326 21.5731 33.0469 21.875 33.0469Z" fill="#CBA052"/>
</svg>
