<svg width="52" height="56" viewBox="0 0 52 56" fill="none" xmlns="http://www.w3.org/2000/svg">
<path d="M48.0194 4.29503C48.0062 4.28081 47.9925 4.26736 47.9793 4.25314C47.9779 4.25171 47.9766 4.25029 47.9752 4.24887C41.2665 -2.90864 28.9879 -0.750561 20.238 8.67244C18.9322 10.0787 17.7539 11.5947 16.7219 13.1885C11.4986 12.3547 6.90112 13.7554 3.74353 17.156C3.73114 17.1694 3.71946 17.1833 3.70717 17.1967C3.70473 17.1994 3.7022 17.2021 3.69986 17.2049C-2.6278 24.0962 -0.620719 37.9754 8.05202 47.3151C16.8335 56.7723 29.7382 58.7597 36.0568 51.9551C36.0645 51.9467 36.072 51.938 36.0797 51.9296C36.0837 51.925 36.0879 51.9206 36.0919 51.916C39.2236 48.5167 40.5124 43.5822 39.741 37.9782C41.2209 36.8669 42.6287 35.598 43.9345 34.1916C52.7299 24.7196 54.698 11.4874 48.0194 4.29503ZM22.3923 10.9924C29.1675 3.69598 38.0843 1.38674 43.7635 4.88762L43.6946 4.91289C40.313 6.15277 37.3193 8.29324 35.0375 11.1032C32.868 13.7748 31.3409 17.0554 30.5991 20.6194C27.388 17.4888 23.7184 15.2024 19.9593 13.9755C20.7014 12.9352 21.515 11.9371 22.3923 10.9924ZM10.2062 44.9952C3.8194 38.1171 1.28805 28.1098 4.31949 21.8205C6.66021 29.2172 12.5352 34.7553 19.6532 36.2745C25.7841 37.583 30.8047 42.3681 32.756 48.7626L33.2221 50.2901C27.8405 54.9398 17.3772 52.7179 10.2062 44.9952ZM35.5163 47.3233C33.1342 40.0146 27.3196 34.566 20.2453 33.0561C14.1891 31.7634 9.19085 27.0504 7.20103 20.7562L6.58455 18.8061C12.1772 13.8529 22.3129 16.2747 29.594 24.1158C33.1182 27.9111 35.8608 32.8342 36.6767 38.106C37.2225 41.6333 36.8103 44.8103 35.5163 47.3233ZM39.0101 34.4918C37.9089 30.5788 35.888 26.7561 33.1291 23.382C33.2627 22.8605 33.3811 22.333 33.4784 21.804C34.6925 15.2073 38.7739 10.1827 44.6763 8.01871L46.4888 7.35425C51.0734 13.3155 49.1197 23.9677 41.7801 31.8719C40.9029 32.8164 39.9759 33.6927 39.0101 34.4918Z" fill="#CBA052"/>
</svg>
