<svg width="47" height="46" viewBox="0 0 47 46" fill="none" xmlns="http://www.w3.org/2000/svg">
<g clip-path="url(#clip0)">
<path d="M14.2908 31.2902C12.4219 31.26 10.5687 30.9511 8.79498 30.3739C5.60788 29.3862 3.12259 27.9104 1.60652 26.1065C0.13047 24.3467 -0.349692 22.3481 0.254322 20.4702C0.860241 18.5954 2.43029 17.2291 4.67423 16.623C6.97532 16.0014 9.87662 16.1953 13.0618 17.1825C20.4351 19.4669 22.6644 23.8027 21.6019 27.0855C20.9953 28.9603 19.4259 30.3273 17.1819 30.9334C16.2389 31.1784 15.2665 31.2984 14.2908 31.2902V31.2902ZM7.57171 17.5082C6.70918 17.499 5.84931 17.6035 5.0153 17.819C3.1734 18.3163 1.94696 19.3619 1.46806 20.8432C0.988538 22.3239 1.37661 23.8705 2.58971 25.3145C3.94954 26.9307 6.2284 28.2716 9.17988 29.1866C12.1313 30.1016 14.7818 30.2906 16.846 29.733C18.6879 29.2357 19.9143 28.1895 20.3932 26.7088C21.4405 23.4727 18.3411 20.1196 12.6814 18.3654C11.0323 17.828 9.30947 17.539 7.57171 17.5082V17.5082Z" fill="#CBA052"/>
<path d="M20.6967 28.2381C20.6009 28.2386 20.5063 28.2179 20.4198 28.1775C20.3334 28.1372 20.2574 28.0782 20.1975 28.005C18.4966 25.9132 15.2199 24.6563 10.4596 24.2703C5.47252 23.8662 1.33906 19.8481 1.16567 19.6771C1.04683 19.5602 0.980298 19.4019 0.980715 19.237C0.981132 19.0721 1.04846 18.9142 1.16789 18.7978C1.28732 18.6815 1.44907 18.6164 1.61755 18.6168C1.78603 18.6172 1.94745 18.6831 2.06629 18.8C2.10503 18.8386 6.04986 22.6653 10.5644 23.0314C15.7598 23.4529 19.2365 24.826 21.1908 27.2311C21.2653 27.3225 21.3118 27.4327 21.3252 27.5488C21.3385 27.665 21.3181 27.7825 21.2663 27.8879C21.2146 27.9932 21.1334 28.0822 21.0323 28.1444C20.9313 28.2067 20.8143 28.2398 20.6948 28.24L20.6967 28.2381Z" fill="#0C3158"/>
<path d="M29.931 23.8619C26.8188 23.8619 24.6962 22.5036 23.7543 20.599C22.2224 17.4983 23.7937 12.8952 30.756 9.59938C33.7647 8.17525 36.6063 7.57663 38.9747 7.86879C41.2847 8.15411 43.0395 9.28609 43.9135 11.0565C45.4454 14.1565 43.8741 18.7602 36.9118 22.0592C34.752 23.1638 32.3664 23.7798 29.931 23.8619V23.8619ZM24.8975 20.0575C26.4073 23.1134 31.0133 23.4665 36.3579 20.9365C41.7026 18.4065 44.28 14.6538 42.7696 11.5979C42.0786 10.1992 40.7118 9.33644 38.8159 9.10271C36.6901 8.83852 34.0962 9.39922 31.3092 10.7189C25.9646 13.2483 23.3878 17.0023 24.8975 20.0575V20.0575Z" fill="#CBA052"/>
<path d="M24.1009 19.4116C23.9663 19.4116 23.8837 19.4116 23.8577 19.4085C23.6892 19.4034 23.5298 19.333 23.4144 19.2128C23.2989 19.0926 23.237 18.9325 23.2422 18.7676C23.2475 18.6028 23.3194 18.4467 23.4422 18.3337C23.565 18.2207 23.7286 18.1602 23.8971 18.1653C23.9504 18.1653 29.5072 18.2952 33.043 15.5277C37.1168 12.3407 40.6094 11.0023 43.7133 11.4356C43.7967 11.4461 43.8771 11.4728 43.9499 11.5139C44.0227 11.5551 44.0864 11.6101 44.1373 11.6755C44.1883 11.741 44.2254 11.8157 44.2466 11.8954C44.2678 11.975 44.2726 12.058 44.2608 12.1394C44.249 12.2209 44.2208 12.2993 44.1778 12.37C44.1348 12.4407 44.0779 12.5024 44.0103 12.5514C43.9428 12.6004 43.866 12.6358 43.7843 12.6556C43.7027 12.6753 43.6179 12.679 43.5348 12.6664C40.8329 12.2934 37.5645 13.5789 33.835 16.4987C30.3297 19.2444 25.2785 19.4116 24.1009 19.4116V19.4116Z" fill="#0C3158"/>
<path d="M20.1428 46.0999C19.3037 46.1057 18.4668 46.0137 17.6499 45.8257C15.3882 45.2887 13.7756 43.9708 13.1094 42.1153C12.4431 40.2598 12.8585 38.2451 14.2799 36.4405C15.7375 34.5906 18.1746 33.0396 21.3299 31.9549C24.4853 30.8702 27.3751 30.5873 29.6959 31.1387C31.9576 31.6758 33.5702 32.9936 34.2365 34.8485C34.9028 36.7035 34.4906 38.7194 33.0659 40.5233C31.6089 42.3733 29.1719 43.9248 26.0159 45.0089C24.1343 45.6914 22.1491 46.0601 20.1428 46.0999V46.0999ZM27.1948 32.1078C25.334 32.1485 23.4934 32.4937 21.7491 33.1291C18.8275 34.1343 16.5931 35.5423 15.286 37.2014C14.1192 38.6821 13.7807 40.2392 14.3072 41.7044C14.8331 43.1702 16.0932 44.1778 17.9497 44.6186C20.0298 45.1121 22.6732 44.8423 25.5942 43.8372C28.5152 42.832 30.7502 41.4247 32.058 39.7656C33.2241 38.2849 33.5626 36.7277 33.0361 35.2625C32.5096 33.7974 31.2501 32.7891 29.3936 32.3484C28.673 32.1829 27.9349 32.1022 27.1948 32.1078V32.1078Z" fill="#CBA052"/>
<path d="M15.6591 41.0802C14.8866 41.0851 14.1147 41.0398 13.3484 40.9447C13.1817 40.9211 13.0313 40.8337 12.9304 40.7016C12.8295 40.5695 12.7864 40.4036 12.8105 40.2404C12.8346 40.0772 12.9239 39.93 13.0589 39.8313C13.1938 39.7326 13.3633 39.6903 13.5301 39.7139C13.5841 39.7214 19.0875 40.4599 22.9199 38.0977C27.3322 35.3781 30.9544 34.4301 33.9929 35.204C34.0763 35.2219 34.1553 35.256 34.225 35.3044C34.2947 35.3528 34.3536 35.4144 34.3984 35.4857C34.4432 35.5569 34.4728 35.6362 34.4855 35.7189C34.4982 35.8016 34.4938 35.8859 34.4724 35.9669C34.451 36.0479 34.4132 36.1238 34.3611 36.1901C34.3091 36.2564 34.2439 36.3117 34.1695 36.3528C34.095 36.3939 34.0129 36.4199 33.928 36.4291C33.8431 36.4384 33.7572 36.4309 33.6753 36.4069C31.0325 35.7362 27.6415 36.6555 23.5976 39.1495C20.9828 40.7613 17.7836 41.0802 15.6591 41.0802V41.0802Z" fill="#0C3158"/>
</g>
<defs>
<clipPath id="clip0">
<rect width="47" height="46" fill="white"/>
</clipPath>
</defs>
</svg>
