<svg width="40" height="40" viewBox="0 0 40 40" fill="none" xmlns="http://www.w3.org/2000/svg">
<path d="M33.4875 5.3125H29.0875V4.6875C29.0875 4.35598 28.9558 4.03804 28.7214 3.80362C28.487 3.5692 28.169 3.4375 27.8375 3.4375C27.506 3.4375 27.188 3.5692 26.9536 3.80362C26.7192 4.03804 26.5875 4.35598 26.5875 4.6875V5.3125H13.4125V4.6875C13.4125 4.35598 13.2808 4.03804 13.0464 3.80362C12.812 3.5692 12.494 3.4375 12.1625 3.4375C11.831 3.4375 11.513 3.5692 11.2786 3.80362C11.0442 4.03804 10.9125 4.35598 10.9125 4.6875V5.3125H6.5125C5.11781 5.3158 3.78119 5.8713 2.795 6.8575C1.8088 7.84369 1.2533 9.18031 1.25 10.575V32.5C1.2533 33.8947 1.8088 35.2313 2.795 36.2175C3.78119 37.2037 5.11781 37.7592 6.5125 37.7625H33.4875C34.8822 37.7592 36.2188 37.2037 37.205 36.2175C38.1912 35.2313 38.7467 33.8947 38.75 32.5V10.575C38.7467 9.18031 38.1912 7.84369 37.205 6.8575C36.2188 5.8713 34.8822 5.3158 33.4875 5.3125ZM6.5125 7.8125H10.9125V8.4375C10.9125 8.76902 11.0442 9.08696 11.2786 9.32138C11.513 9.5558 11.831 9.6875 12.1625 9.6875C12.494 9.6875 12.812 9.5558 13.0464 9.32138C13.2808 9.08696 13.4125 8.76902 13.4125 8.4375V7.8125H26.5875V8.4375C26.5875 8.76902 26.7192 9.08696 26.9536 9.32138C27.188 9.5558 27.506 9.6875 27.8375 9.6875C28.169 9.6875 28.487 9.5558 28.7214 9.32138C28.9558 9.08696 29.0875 8.76902 29.0875 8.4375V7.8125H33.4875C34.2202 7.8125 34.9228 8.10355 35.4409 8.62162C35.959 9.13969 36.25 9.84234 36.25 10.575V13.5375H3.75V10.575C3.75 9.84234 4.04105 9.13969 4.55912 8.62162C5.07719 8.10355 5.77984 7.8125 6.5125 7.8125ZM33.4875 35.3125H6.5125C6.14548 35.3126 5.78212 35.2395 5.44366 35.0975C5.1052 34.9556 4.79841 34.7476 4.54123 34.4858C4.28404 34.2239 4.08161 33.9135 3.94576 33.5725C3.8099 33.2316 3.74336 32.867 3.75 32.5V16.0375H36.25V32.5C36.2566 32.867 36.1901 33.2316 36.0542 33.5725C35.9184 33.9135 35.716 34.2239 35.4588 34.4858C35.2016 34.7476 34.8948 34.9556 34.5563 35.0975C34.2179 35.2395 33.8545 35.3126 33.4875 35.3125Z" fill="#CBA052"/>
</svg>
