<svg width="43" height="53" viewBox="0 0 43 53" fill="none" xmlns="http://www.w3.org/2000/svg">
<path d="M38.9688 14.9062V13.8966L41.1473 13.2253C41.2927 13.1805 41.4217 13.0771 41.5139 12.9315C41.6062 12.7859 41.6562 12.6066 41.6562 12.4219V7.45312C41.6562 7.26844 41.6062 7.08905 41.5139 6.94349C41.4217 6.79792 41.2927 6.69453 41.1473 6.64974L38.9688 5.97844V4.96875C38.9682 4.31008 38.7556 3.6786 38.3777 3.21285C37.9999 2.7471 37.4875 2.48511 36.9531 2.48438H6.04688C5.51248 2.48511 5.00015 2.7471 4.62228 3.21285C4.2444 3.6786 4.03185 4.31008 4.03125 4.96875V5.97844L1.8527 6.64974C1.70733 6.69453 1.57828 6.79792 1.48606 6.94349C1.39385 7.08905 1.34375 7.26844 1.34375 7.45312V12.4219C1.34375 12.6066 1.39385 12.7859 1.48606 12.9315C1.57828 13.0771 1.70733 13.1805 1.8527 13.2253L4.03125 13.8966V14.9062C4.03179 15.4198 4.16122 15.9206 4.40181 16.3399C4.64239 16.7592 4.98233 17.0764 5.375 17.2482V35.6094H3.35938C2.82499 35.6101 2.31267 35.8721 1.9348 36.3379C1.55693 36.8036 1.34437 37.4351 1.34375 38.0938V44.7188C1.34437 45.3774 1.55693 46.0089 1.9348 46.4746C2.31267 46.9404 2.82499 47.2024 3.35938 47.2031H4.17856L4.7232 49.8883C4.75953 50.0675 4.84342 50.2266 4.96152 50.3402C5.07962 50.4539 5.22516 50.5156 5.375 50.5156H9.40625C9.55609 50.5156 9.70163 50.4539 9.81973 50.3402C9.93783 50.2266 10.0217 50.0675 10.0581 49.8883L10.6027 47.2031H32.3973L32.9419 49.8883C32.9783 50.0675 33.0622 50.2266 33.1803 50.3402C33.2984 50.4539 33.4439 50.5156 33.5938 50.5156H37.625C37.7748 50.5156 37.9204 50.4539 38.0385 50.3402C38.1566 50.2266 38.2405 50.0675 38.2768 49.8883L38.8214 47.2031H39.6406C40.175 47.2024 40.6873 46.9404 41.0652 46.4746C41.4431 46.0089 41.6556 45.3774 41.6562 44.7188V38.0938C41.6556 37.4351 41.4431 36.8036 41.0652 36.3379C40.6873 35.8721 40.175 35.6101 39.6406 35.6094H37.625V17.2482C38.0177 17.0764 38.3576 16.7592 38.5982 16.3399C38.8388 15.9206 38.9682 15.4198 38.9688 14.9062ZM36.2812 19.0469H29.5625V18.7305L31.7368 17.3906H36.2812V19.0469ZM32.25 20.7031H33.5938V24.0156H32.25V20.7031ZM40.3125 8.09968V11.7753L38.9688 12.1894V7.68562L40.3125 8.09968ZM5.375 4.96875C5.3752 4.74919 5.44605 4.5387 5.57201 4.38345C5.69797 4.2282 5.86874 4.14087 6.04688 4.14062H36.9531C37.1313 4.14087 37.302 4.2282 37.428 4.38345C37.554 4.5387 37.6248 4.74919 37.625 4.96875V14.9062C37.6248 15.1258 37.554 15.3363 37.428 15.4916C37.302 15.6468 37.1313 15.7341 36.9531 15.7344H31.5781C31.4738 15.7344 31.3709 15.7643 31.2776 15.8218L28.732 17.3906H14.268L11.7224 15.8218C11.6291 15.7643 11.5262 15.7344 11.4219 15.7344H6.04688C5.86874 15.7341 5.69797 15.6468 5.57201 15.4916C5.44605 15.3363 5.3752 15.1258 5.375 14.9062V4.96875ZM17.4688 26.5C17.4693 25.9858 17.5991 25.4844 17.8402 25.0648C18.0814 24.6452 18.4221 24.328 18.8154 24.1568C18.8421 24.9396 19.0939 25.6851 19.5257 26.2601C19.4831 26.3046 19.4417 26.3508 19.4015 26.3999C19.1889 26.6617 19.0266 26.9789 18.9266 27.3281H17.4688V26.5ZM20.1562 24.0156C20.1562 23.688 20.2351 23.3678 20.3827 23.0955C20.5304 22.8231 20.7402 22.6108 20.9858 22.4854C21.2313 22.3601 21.5015 22.3273 21.7622 22.3912C22.0228 22.4551 22.2622 22.6128 22.4502 22.8445C22.6381 23.0761 22.7661 23.3712 22.8179 23.6925C22.8698 24.0138 22.8432 24.3468 22.7415 24.6494C22.6398 24.9521 22.4675 25.2108 22.2465 25.3927C22.0256 25.5747 21.7658 25.6719 21.5 25.6719C21.1437 25.6714 20.8022 25.4967 20.5503 25.1862C20.2984 24.8757 20.1567 24.4547 20.1562 24.0156ZM24.1846 24.1568C24.5779 24.328 24.9186 24.6452 25.1598 25.0648C25.4009 25.4844 25.5307 25.9858 25.5312 26.5V27.3281H24.0734C23.9728 26.9781 23.81 26.6602 23.5968 26.3978C23.5574 26.3495 23.5163 26.3038 23.4744 26.2599C23.9062 25.6851 24.1579 24.9396 24.1846 24.1568ZM25.5312 22.3594H23.8264C23.5908 21.8559 23.2518 21.4377 22.8435 21.1469C22.4352 20.8562 21.972 20.7031 21.5004 20.7031C21.0289 20.7031 20.5656 20.8562 20.1573 21.1469C19.749 21.4377 19.41 21.8559 19.1745 22.3594H17.4688V19.0469H25.5312V22.3594ZM8.0625 17.3906V19.875C8.0623 20.0946 7.99145 20.305 7.86549 20.4603C7.73953 20.6156 7.56876 20.7029 7.39062 20.7031C7.16171 20.703 6.93447 20.7512 6.71875 20.8456V17.3906H8.0625ZM2.6875 11.7753V8.09968L4.03125 7.68562V12.1894L2.6875 11.7753ZM7.39062 22.3594C7.92501 22.3586 8.43733 22.0966 8.8152 21.6309C9.19307 21.1651 9.40563 20.5337 9.40625 19.875V17.3906H10.75V19.875C10.7506 20.5337 10.9632 21.1652 11.341 21.6309C11.7189 22.0967 12.2312 22.3586 12.7656 22.3594C12.9438 22.3596 13.1145 22.4469 13.2405 22.6022C13.3664 22.7575 13.4373 22.9679 13.4375 23.1875V24.0156H6.71875V23.1875C6.71895 22.9679 6.7898 22.7575 6.91576 22.6022C7.04172 22.4469 7.21249 22.3596 7.39062 22.3594ZM8.88168 48.8594H5.89957L5.56363 47.2031H9.21762L8.88168 48.8594ZM14.5246 45.5469L15.1965 43.8906H27.8035L28.4754 45.5469H14.5246ZM37.1004 48.8594H34.1183L33.7824 47.2031H37.4364L37.1004 48.8594ZM40.3125 38.0938V44.7188C40.3123 44.9383 40.2415 45.1488 40.1155 45.3041C39.9895 45.4593 39.8188 45.5466 39.6406 45.5469H29.9777L28.8197 42.6921C28.7639 42.5546 28.6781 42.4389 28.572 42.3581C28.4658 42.2772 28.3435 42.2344 28.2188 42.2344H14.7812C14.6565 42.2344 14.5342 42.2772 14.428 42.3581C14.3219 42.4389 14.2361 42.5546 14.1803 42.6921L13.0223 45.5469H3.35938C3.18124 45.5466 3.01047 45.4593 2.88451 45.3041C2.75855 45.1488 2.6877 44.9383 2.6875 44.7188V38.0938C2.6877 37.8742 2.75855 37.6637 2.88451 37.5084C3.01047 37.3532 3.18124 37.2659 3.35938 37.2656H39.6406C39.8188 37.2659 39.9895 37.3532 40.1155 37.5084C40.2415 37.6637 40.3123 37.8742 40.3125 38.0938ZM6.71875 35.6094V25.6719H14.1094C14.2876 25.6719 14.4585 25.5846 14.5845 25.4293C14.7105 25.274 14.7812 25.0634 14.7812 24.8438V23.1875C14.7807 22.5288 14.5681 21.8973 14.1902 21.4316C13.8124 20.9658 13.3 20.7039 12.7656 20.7031C12.5875 20.7029 12.4167 20.6156 12.2908 20.4603C12.1648 20.305 12.094 20.0946 12.0938 19.875V17.9024L13.8089 18.9594C13.9022 19.0169 14.0051 19.0469 14.1094 19.0469H16.125V23.1875C16.125 23.4071 16.1958 23.6178 16.3218 23.7731C16.4478 23.9284 16.6187 24.0156 16.7969 24.0156H16.7987C16.3608 24.7313 16.1242 25.6036 16.125 26.5V28.1562C16.125 28.3759 16.1958 28.5865 16.3218 28.7418C16.4478 28.8971 16.6187 28.9844 16.7969 28.9844H19.4844C19.6626 28.9844 19.8335 28.8971 19.9595 28.7418C20.0855 28.5865 20.1562 28.3759 20.1562 28.1562C20.156 28.0474 20.1732 27.9396 20.2069 27.839C20.2405 27.7384 20.29 27.6469 20.3525 27.57C20.4149 27.493 20.4891 27.432 20.5707 27.3905C20.6523 27.349 20.7398 27.3278 20.8281 27.3281H22.1719C22.2602 27.3278 22.3476 27.3491 22.4293 27.3906C22.5109 27.4321 22.585 27.4931 22.6475 27.57C22.7099 27.647 22.7594 27.7384 22.7931 27.839C22.8268 27.9396 22.844 28.0474 22.8438 28.1562C22.8438 28.3759 22.9145 28.5865 23.0405 28.7418C23.1665 28.8971 23.3374 28.9844 23.5156 28.9844H26.2031C26.3813 28.9844 26.5522 28.8971 26.6782 28.7418C26.8042 28.5865 26.875 28.3759 26.875 28.1562V26.5C26.8758 25.6036 26.6392 24.7313 26.2013 24.0156H26.2031C26.3813 24.0156 26.5522 23.9284 26.6782 23.7731C26.8042 23.6178 26.875 23.4071 26.875 23.1875V19.0469H28.2188V19.875C28.2188 20.0946 28.2895 20.3053 28.4155 20.4606C28.5415 20.6159 28.7124 20.7031 28.8906 20.7031H30.9062V24.8438C30.9062 25.0634 30.977 25.274 31.103 25.4293C31.229 25.5846 31.3999 25.6719 31.5781 25.6719H34.2656C34.4438 25.6719 34.6147 25.5846 34.7407 25.4293C34.8667 25.274 34.9375 25.0634 34.9375 24.8438V20.7031H36.2812V35.6094H6.71875Z" fill="#0C3158"/>
<path d="M8.73438 10.7656H14.1094C14.2876 10.7656 14.4585 10.6784 14.5845 10.5231C14.7105 10.3678 14.7812 10.1571 14.7812 9.9375V6.625C14.7812 6.40537 14.7105 6.19473 14.5845 6.03943C14.4585 5.88412 14.2876 5.79688 14.1094 5.79688H8.73438C8.55618 5.79688 8.38529 5.88412 8.25929 6.03943C8.13329 6.19473 8.0625 6.40537 8.0625 6.625V9.9375C8.0625 10.1571 8.13329 10.3678 8.25929 10.5231C8.38529 10.6784 8.55618 10.7656 8.73438 10.7656ZM9.40625 7.45312H13.4375V9.10938H9.40625V7.45312Z" fill="#CBA052"/>
<path d="M21.5 15.7344C22.2973 15.7344 23.0767 15.443 23.7396 14.897C24.4026 14.351 24.9193 13.575 25.2244 12.6671C25.5295 11.7592 25.6093 10.7601 25.4538 9.79627C25.2982 8.83243 24.9143 7.94708 24.3505 7.25219C23.7867 6.5573 23.0684 6.08407 22.2865 5.89235C21.5045 5.70063 20.6939 5.79903 19.9573 6.1751C19.2207 6.55117 18.5911 7.18803 18.1481 8.00514C17.7052 8.82224 17.4688 9.7829 17.4688 10.7656C17.47 12.083 17.8951 13.3459 18.6508 14.2774C19.4065 15.2089 20.4312 15.7329 21.5 15.7344ZM20.8281 7.55799V10.7656C20.8281 10.9853 20.8989 11.1959 21.0249 11.3512C21.1509 11.5065 21.3218 11.5938 21.5 11.5938C21.6782 11.5938 21.8491 11.5065 21.9751 11.3512C22.1011 11.1959 22.1719 10.9853 22.1719 10.7656V7.55799C22.8052 7.75955 23.3572 8.2389 23.7243 8.90618C24.0914 9.57347 24.2485 10.3829 24.1661 11.1827C24.0837 11.9825 23.7674 12.7178 23.2766 13.2508C22.7858 13.7838 22.1541 14.0778 21.5 14.0778C20.8459 14.0778 20.2142 13.7838 19.7234 13.2508C19.2326 12.7178 18.9163 11.9825 18.8339 11.1827C18.7515 10.3829 18.9086 9.57347 19.2757 8.90618C19.6428 8.2389 20.1948 7.75955 20.8281 7.55799Z" fill="#CBA052"/>
<path d="M34.2656 12.4219C34.6643 12.4219 35.054 12.2762 35.3854 12.0032C35.7169 11.7302 35.9753 11.3422 36.1278 10.8882C36.2804 10.4343 36.3203 9.93475 36.2425 9.45282C36.1647 8.9709 35.9728 8.52823 35.6909 8.18078C35.409 7.83334 35.0498 7.59672 34.6589 7.50086C34.2679 7.405 33.8626 7.4542 33.4943 7.64224C33.126 7.83027 32.8112 8.1487 32.5897 8.55726C32.3682 8.96581 32.25 9.44614 32.25 9.9375C32.2506 10.5962 32.4632 11.2277 32.841 11.6934C33.2189 12.1592 33.7312 12.4211 34.2656 12.4219ZM34.2656 9.10938C34.3985 9.10938 34.5284 9.15795 34.6389 9.24894C34.7494 9.33994 34.8355 9.46927 34.8864 9.62059C34.9372 9.77191 34.9505 9.93842 34.9246 10.0991C34.8987 10.2597 34.8347 10.4073 34.7407 10.5231C34.6467 10.6389 34.527 10.7178 34.3967 10.7497C34.2664 10.7817 34.1313 10.7653 34.0085 10.7026C33.8857 10.6399 33.7808 10.5338 33.707 10.3976C33.6332 10.2614 33.5937 10.1013 33.5937 9.9375C33.5939 9.71795 33.6648 9.50745 33.7908 9.3522C33.9167 9.19695 34.0875 9.10962 34.2656 9.10938Z" fill="#CBA052"/>
<path d="M28.8906 12.4219C29.2893 12.4219 29.679 12.2762 30.0104 12.0032C30.3419 11.7302 30.6003 11.3422 30.7528 10.8882C30.9054 10.4343 30.9453 9.93475 30.8675 9.45282C30.7897 8.9709 30.5978 8.52823 30.3159 8.18078C30.034 7.83334 29.6748 7.59672 29.2839 7.50086C28.8929 7.405 28.4876 7.4542 28.1193 7.64224C27.751 7.83027 27.4362 8.1487 27.2147 8.55726C26.9932 8.96581 26.875 9.44614 26.875 9.9375C26.8756 10.5962 27.0882 11.2277 27.466 11.6934C27.8439 12.1592 28.3562 12.4211 28.8906 12.4219ZM28.8906 9.10938C29.0235 9.10938 29.1534 9.15795 29.2639 9.24894C29.3744 9.33994 29.4605 9.46927 29.5114 9.62059C29.5622 9.77191 29.5755 9.93842 29.5496 10.0991C29.5237 10.2597 29.4597 10.4073 29.3657 10.5231C29.2718 10.6389 29.152 10.7178 29.0217 10.7497C28.8914 10.7817 28.7563 10.7653 28.6335 10.7026C28.5107 10.6399 28.4058 10.5338 28.332 10.3976C28.2582 10.2614 28.2188 10.1013 28.2188 9.9375C28.219 9.71795 28.2898 9.50745 28.4158 9.3522C28.5417 9.19695 28.7125 9.10962 28.8906 9.10938Z" fill="#CBA052"/>
<path d="M8.73438 14.0781C9.10544 14.0781 9.40625 13.7074 9.40625 13.25C9.40625 12.7926 9.10544 12.4219 8.73438 12.4219C8.36331 12.4219 8.0625 12.7926 8.0625 13.25C8.0625 13.7074 8.36331 14.0781 8.73438 14.0781Z" fill="#CBA052"/>
<path d="M11.4219 14.0781C11.7929 14.0781 12.0938 13.7074 12.0938 13.25C12.0938 12.7926 11.7929 12.4219 11.4219 12.4219C11.0508 12.4219 10.75 12.7926 10.75 13.25C10.75 13.7074 11.0508 14.0781 11.4219 14.0781Z" fill="#CBA052"/>
<path d="M14.1094 14.0781C14.4804 14.0781 14.7812 13.7074 14.7812 13.25C14.7812 12.7926 14.4804 12.4219 14.1094 12.4219C13.7383 12.4219 13.4375 12.7926 13.4375 13.25C13.4375 13.7074 13.7383 14.0781 14.1094 14.0781Z" fill="#CBA052"/>
</svg>
