<svg width="43" height="69" viewBox="0 0 43 69" fill="none" xmlns="http://www.w3.org/2000/svg">
<path d="M0 21.8877H33.405V68.9997H4.46232V29.0755L0 21.8877Z" fill="#CBA052"/>
<path d="M1.69653 16.478H35.1103C35.1103 16.478 32.7125 9.29443 18.345 9.29443C3.97748 9.29443 1.69653 16.478 1.69653 16.478Z" stroke="#CBA052"/>
<path d="M18.4148 5.45605V9.37307" stroke="#0C3158"/>
<path d="M18.5782 0C25.028 0 24.5972 5.90114 24.5972 5.90114H12.2308C12.2308 5.90114 12.1333 0 18.5782 0Z" fill="#0C3158"/>
<path d="M33.4053 26.202C33.4053 26.202 38.6581 23.4169 40.5978 32.1032C42.5376 40.7894 42.3962 47.1872 40.5978 54.3995C38.7995 61.6118 33.4053 60.9501 33.4053 60.9501" stroke="#CBA052"/>
</svg>
