<svg width="480" height="480" viewBox="0 0 480 480" fill="none" xmlns="http://www.w3.org/2000/svg">
<g clip-path="url(#clip0)">
<path d="M125.112 383.126C119.652 379.495 113.42 377.189 106.912 376.39C119.396 366.563 127.073 351.859 128 335.998C128 283.102 97.544 271.998 72 271.998C46.456 271.998 16 283.102 16 335.998C16.929 351.86 24.609 366.564 37.096 376.39C15.89 379.003 -0.0309853 397.031 1.46746e-05 418.398V471.998C1.46746e-05 476.416 3.58201 479.998 8.00001 479.998H136C140.418 479.998 144 476.416 144 471.998V418.398C144.009 404.219 136.918 390.978 125.112 383.126ZM32.416 327.534C34.584 300.718 47.2 287.998 72 287.998C94.704 287.998 107.2 298.734 110.776 321.134L84.12 305.134C80.331 302.861 75.417 304.09 73.144 307.879C72.844 308.379 72.6 308.909 72.416 309.462C68.368 321.606 46.512 326.198 32.416 327.534ZM33.112 343.582C46.808 342.454 71.512 338.31 83.032 323.142L111.624 340.302C108.416 359.894 84.28 375.998 72 375.998C54.157 372.959 39.314 360.586 33.112 343.582ZM78.608 422.062L72 428.686L65.392 422.07L72 405.534L78.608 422.062ZM128 463.998H16V418.398C16 403.818 27.82 391.998 42.4 391.998H60.16L48.568 421.03C47.383 424.001 48.081 427.393 50.344 429.654L66.344 445.654C69.468 448.777 74.532 448.777 77.656 445.654L93.656 429.654C95.919 427.393 96.617 424.001 95.432 421.03L83.816 391.998H101.6C116.18 391.998 128 403.818 128 418.398V463.998Z" fill="#CC9F52"/>
<path d="M293.112 383.126C287.652 379.495 281.42 377.189 274.912 376.39C287.396 366.563 295.073 351.859 296 335.998C296 283.102 265.544 271.998 240 271.998C214.456 271.998 184 283.102 184 335.998C184.929 351.86 192.609 366.564 205.096 376.39C183.89 379.003 167.969 397.031 168 418.398V471.998C168 476.416 171.582 479.998 176 479.998H304C308.418 479.998 312 476.416 312 471.998V418.398C312.009 404.219 304.918 390.978 293.112 383.126ZM200.416 327.534C202.584 300.718 215.2 287.998 240 287.998C262.704 287.998 275.2 298.734 278.776 321.134L252.12 305.134C248.331 302.861 243.417 304.09 241.144 307.879C240.844 308.379 240.6 308.909 240.416 309.462C236.368 321.606 214.512 326.198 200.416 327.534ZM201.112 343.582C214.808 342.454 239.512 338.31 251.032 323.142L279.624 340.302C276.416 359.894 252.28 375.998 240 375.998C222.157 372.959 207.314 360.586 201.112 343.582ZM246.608 422.062L240 428.686L233.392 422.07L240 405.534L246.608 422.062ZM296 463.998H184V418.398C184 403.818 195.82 391.998 210.4 391.998H228.16L216.544 421.03C215.359 424.001 216.057 427.393 218.32 429.654L234.32 445.654C237.444 448.777 242.508 448.777 245.632 445.654L261.632 429.654C263.895 427.393 264.593 424.001 263.408 421.03L251.816 391.998H269.6C284.18 391.998 296 403.818 296 418.398V463.998Z" fill="#CC9F52"/>
<path d="M461.112 383.126C455.652 379.495 449.42 377.189 442.912 376.39C455.396 366.563 463.073 351.859 464 335.998C464 283.102 433.544 271.998 408 271.998C382.456 271.998 352 283.102 352 335.998C352.929 351.86 360.609 366.564 373.096 376.39C351.89 379.003 335.969 397.031 336 418.398V471.998C336 476.416 339.582 479.998 344 479.998H472C476.418 479.998 480 476.416 480 471.998V418.398C480.009 404.219 472.918 390.978 461.112 383.126ZM368.416 327.534C370.584 300.718 383.2 287.998 408 287.998C430.704 287.998 443.2 298.734 446.776 321.134L420.12 305.134C416.331 302.861 411.417 304.09 409.144 307.879C408.844 308.379 408.6 308.909 408.416 309.462C404.368 321.606 382.512 326.198 368.416 327.534ZM369.112 343.582C382.808 342.454 407.512 338.31 419.032 323.142L447.624 340.302C444.416 359.894 420.28 375.998 408 375.998C390.157 372.959 375.314 360.586 369.112 343.582ZM414.608 422.062L408 428.686L401.392 422.07L408 405.534L414.608 422.062ZM464 463.998H352V418.398C352 403.818 363.82 391.998 378.4 391.998H396.16L384.544 421.03C383.359 424.001 384.057 427.393 386.32 429.654L402.32 445.654C405.444 448.777 410.508 448.777 413.632 445.654L429.632 429.654C431.895 427.393 432.593 424.001 431.408 421.03L419.816 391.998H437.6C452.18 391.998 464 403.818 464 418.398V463.998Z" fill="#CC9F52"/>
<path d="M368 239.998V135.998C368 131.58 364.418 127.998 360 127.998H288V103.998C288 99.58 284.418 95.998 280 95.998H231.4C219.652 75.562 197.601 63.26 174.04 63.998C138.943 65.964 111.607 95.2 112 130.35C111.987 151.238 117.944 171.694 129.168 189.31L161.424 239.998H152V255.998H376V239.998H368ZM200 239.998H190.576L200 225.19V239.998ZM176 233.102L142.672 180.718C133.08 165.671 127.989 148.195 128 130.35C127.547 103.826 148.044 81.641 174.52 79.998H176C202.51 79.998 224 101.488 224 127.998V130.35C224.017 148.206 218.926 165.693 209.328 180.75L176 233.102ZM272 239.998H216V200.038L222.832 189.31C234.056 171.694 240.013 151.238 240 130.35V127.998C239.981 122.599 239.282 117.223 237.92 111.998H272V239.998ZM328 239.998H312V215.998H328V239.998ZM352 151.998H336V167.998H352V175.998H336V191.998H352V239.998H344V207.998C344 203.58 340.418 199.998 336 199.998H304C299.582 199.998 296 203.58 296 207.998V239.998H288V191.998H304V175.998H288V167.998H304V151.998H288V143.998H352V151.998Z" fill="#CC9F52"/>
<path d="M264 119.998H248V135.998H264V119.998Z" fill="#CC9F52"/>
<path d="M328 151.998H312V167.998H328V151.998Z" fill="#CC9F52"/>
<path d="M328 175.998H312V191.998H328V175.998Z" fill="#CC9F52"/>
<path d="M264 143.998H248V159.998H264V143.998Z" fill="#CC9F52"/>
<path d="M264 167.998H248V183.998H264V167.998Z" fill="#CC9F52"/>
<path d="M240 191.998H224V207.998H240V191.998Z" fill="#CC9F52"/>
<path d="M264 191.998H248V207.998H264V191.998Z" fill="#CC9F52"/>
<path d="M240 215.998H224V231.998H240V215.998Z" fill="#CC9F52"/>
<path d="M264 215.998H248V231.998H264V215.998Z" fill="#CC9F52"/>
<path d="M443.944 166.918L428.256 170.078C429.24 174.966 430.04 179.966 430.656 184.934L446.52 183.046C445.872 177.654 445.008 172.23 443.944 166.918Z" fill="#003158"/>
<path d="M36 167.302C34.92 172.646 34.072 178.062 33.44 183.406L49.328 185.278C49.904 180.35 50.704 175.342 51.68 170.398L36 167.302Z" fill="#003158"/>
<path d="M421.312 105.99L407.376 113.846C409.832 118.19 412.176 122.694 414.256 127.246L428.76 120.494C426.472 115.574 423.96 110.694 421.312 105.99Z" fill="#003158"/>
<path d="M403.136 78.934L390.576 88.87C393.672 92.766 396.664 96.87 399.472 101.038L412.736 92.102C409.696 87.59 406.464 83.158 403.136 78.934Z" fill="#003158"/>
<path d="M76.696 79.198C73.328 83.438 70.096 87.878 67.08 92.374L80.376 101.278C83.152 97.126 86.136 93.03 89.24 89.102L76.696 79.198Z" fill="#003158"/>
<path d="M380.96 55.046L370.112 66.806C373.816 70.23 377.408 73.806 380.776 77.438L392.512 66.566C388.864 62.63 384.976 58.75 380.96 55.046Z" fill="#003158"/>
<path d="M58.536 106.254C55.896 110.95 53.392 115.846 51.104 120.798L65.616 127.518C67.736 122.942 70.048 118.422 72.472 114.11L58.536 106.254Z" fill="#003158"/>
<path d="M44.848 135.894C42.952 141.014 41.256 146.238 39.8 151.422L55.192 155.766C56.544 150.966 58.112 146.166 59.864 141.43L44.848 135.894Z" fill="#003158"/>
<path d="M98.824 55.238C94.824 58.91 90.968 62.79 87.288 66.774L99.04 77.63C102.4 73.966 106.016 70.398 109.68 66.99L98.824 55.238Z" fill="#003158"/>
<path d="M435.048 135.566L420.048 141.126C421.8 145.838 423.376 150.654 424.736 155.446L440.128 151.07C438.648 145.878 436.928 140.67 435.048 135.566Z" fill="#003158"/>
<path d="M183.416 7.798C178.168 9.286 172.944 10.998 167.912 12.846L173.456 27.846C178.104 26.134 182.928 24.566 187.776 23.19L183.416 7.798Z" fill="#003158"/>
<path d="M215.416 1.44601C210.072 2.07801 204.648 2.93401 199.304 3.98201L202.4 19.686C207.344 18.71 212.352 17.91 217.288 17.334L215.416 1.44601Z" fill="#003158"/>
<path d="M231.68 0.158011L232.288 16.158C237.28 15.982 242.368 15.966 247.36 16.158L248 0.158011C242.584 -0.0579892 237.096 -0.0419892 231.68 0.158011Z" fill="#003158"/>
<path d="M152.84 19.086C147.936 21.35 143.04 23.886 138.312 26.51L146.152 40.462C150.52 38.006 155.024 35.662 159.56 33.606L152.84 19.086Z" fill="#003158"/>
<path d="M264.232 1.39801L262.4 17.286C267.32 17.854 272.328 18.638 277.288 19.606L280.352 3.90201C274.984 2.85401 269.6 2.01401 264.232 1.39801Z" fill="#003158"/>
<path d="M355.32 34.862L346.448 48.174C350.576 50.926 354.672 53.902 358.64 57.022L368.528 44.446C364.232 41.07 359.792 37.838 355.32 34.862Z" fill="#003158"/>
<path d="M296.224 7.694L291.928 23.102C296.728 24.446 301.528 25.998 306.248 27.726L311.76 12.71C306.672 10.83 301.448 9.15 296.224 7.694Z" fill="#003158"/>
<path d="M124.408 35.054C119.88 38.102 115.44 41.326 111.232 44.654L121.136 57.214C125.024 54.142 129.136 51.158 133.328 48.334L124.408 35.054Z" fill="#003158"/>
<path d="M326.848 18.942L320.16 33.47C324.68 35.558 329.208 37.862 333.6 40.302L341.4 26.334C336.648 23.694 331.76 21.198 326.848 18.942Z" fill="#003158"/>
<path d="M176 95.998C158.327 95.998 144 110.325 144 127.998C144 145.671 158.327 159.998 176 159.998C193.673 159.998 208 145.671 208 127.998C208 110.325 193.673 95.998 176 95.998ZM176 143.998C167.163 143.998 160 136.835 160 127.998C160 119.161 167.163 111.998 176 111.998C184.837 111.998 192 119.161 192 127.998C192 136.835 184.837 143.998 176 143.998Z" fill="#003158"/>
</g>
<defs>
<clipPath id="clip0">
<rect width="480" height="480" fill="white"/>
</clipPath>
</defs>
</svg>
