<svg width="35" height="46" viewBox="0 0 35 46" fill="none" xmlns="http://www.w3.org/2000/svg">
<path d="M24.3939 21.0261H12.5483C10.9128 21.0261 9.58691 22.4954 9.58691 24.3079C9.58691 26.1204 10.9128 27.5897 12.5483 27.5897H24.3939C26.0295 27.5897 27.3553 26.1204 27.3553 24.3079C27.3553 22.4954 26.0295 21.0261 24.3939 21.0261Z" fill="#CBA052"/>
<path d="M26.6179 27.5898H11.0705C9.435 27.5898 8.10913 29.0591 8.10913 30.8716C8.10913 32.6841 9.435 34.1534 11.0705 34.1534H26.6179C28.2534 34.1534 29.5793 32.6841 29.5793 30.8716C29.5793 29.0591 28.2534 27.5898 26.6179 27.5898Z" fill="#CBA052"/>
<path d="M28.0988 34.1536H9.59006C7.95453 34.1536 6.62866 35.6229 6.62866 37.4353C6.62866 39.2478 7.95453 40.7171 9.59006 40.7171H28.0988C29.7344 40.7171 31.0602 39.2478 31.0602 37.4353C31.0602 35.6229 29.7344 34.1536 28.0988 34.1536Z" fill="#CBA052"/>
<path d="M10.2734 22.394H4.89395L1.44922 31.487H10.2734" stroke="#0C3158"/>
<path d="M25.5557 8.47664H30.2599C31.0011 8.47135 31.7206 8.75431 32.2929 9.27645C32.7505 9.98988 33.0031 10.8398 33.0177 11.715V37.9748" stroke="#0C3158"/>
<path d="M5.42065 44.7888H33.3505L33.0707 37.7583" stroke="#0C3158" stroke-width="2"/>
<path d="M9.09741 1.41431L14.5893 14.7349V16.777H21.679V14.9392L27.182 1.41431H9.09741Z" stroke="#0C3158"/>
<path d="M27.3597 8.71948H9.59131V12.0013H27.3597V8.71948Z" fill="#CBA052"/>
</svg>
